
        <svg xmlns="http://www.w3.org/2000/svg" xmlns:xlink="http://www.w3.org/1999/xlink" version="1.1" width="3171.4285714285716" 
        height="1792.7857758613063" viewBox="0 -42.85714285714285 3171.4285714285716 1792.7857758613063">
			
			<g transform="scale(8.57142857142857) translate(10, 10)">
				<defs id="SvgjsDefs3187"><linearGradient id="SvgjsLinearGradient3192"><stop id="SvgjsStop3193" stop-color="#8f5e25" offset="0"></stop><stop id="SvgjsStop3194" stop-color="#fbf4a1" offset="0.5"></stop><stop id="SvgjsStop3195" stop-color="#8f5e25" offset="1"></stop></linearGradient><linearGradient id="SvgjsLinearGradient3196"><stop id="SvgjsStop3197" stop-color="#8f5e25" offset="0"></stop><stop id="SvgjsStop3198" stop-color="#fbf4a1" offset="0.5"></stop><stop id="SvgjsStop3199" stop-color="#8f5e25" offset="1"></stop></linearGradient></defs><g id="SvgjsG3188" featureKey="symbolFeature-0" transform="matrix(1.5106909746585446,0,0,1.5106909746585446,100,-26.919851212993336)" fill="url(#SvgjsLinearGradient3192)"><path xmlns="http://www.w3.org/2000/svg" d="M61.5,16.516c0-0.604-0.271-1.176-0.752-1.564c-0.473-0.384-1.084-0.524-1.68-0.396l-36,7.872  c-0.912,0.204-1.568,1.021-1.568,1.956V55.28c-2.188-0.904-4.824-1.416-7.696-1.416C6.064,53.864,0,57.62,0,62.432  c0,4.797,6.064,8.557,13.804,8.557c7.74,0,13.804-3.756,13.804-8.557c0-1.695-0.788-3.252-2.108-4.576V34.028l32-7.38v21.72  c-2.468-1.468-5.824-2.372-9.588-2.372c-7.74,0-13.804,3.752-13.804,8.561c0,4.799,6.064,8.563,13.804,8.563  s13.804-3.756,13.804-8.563c0-0.461-0.104-0.912-0.216-1.349V16.516z M25.5,29.928V26l32-6.996v3.544L25.5,29.928z"></path><path xmlns="http://www.w3.org/2000/svg" d="M97.752,40.748c-1.943,0-3.908-3.248-5.336-5.616c-1-1.648-1.893-3.024-2.916-3.904V27.54  c1.936,3.184,4.389,6.716,8.252,6.716c1.1,0,2-0.896,2-2c0-1.1-0.9-2-2-2c-1.943,0-3.908-3.248-5.336-5.612  c-1.648-2.728-2.936-4.88-5.156-4.88c-1.1,0-2.188,0.852-2.188,1.96c0,0.504,0.164,0.944,0.428,1.288V66.3  c-2.376-1.2-5.376-1.928-8.736-1.928c-7.748,0-13.804,3.756-13.804,8.56c0,4.805,6.063,8.564,13.804,8.564  s13.801-3.756,13.801-8.564c0-1.195-0.385-2.336-1.076-3.359V38.036c1.943,3.184,4.396,6.716,8.252,6.716c1.104,0,2-0.896,2-2  C99.752,41.652,98.855,40.748,97.752,40.748L97.752,40.748z"></path></g><g id="SvgjsG3189" featureKey="nameFeature-0" transform="matrix(2.1511693119251776,0,0,2.1511693119251776,-6.969791155546378,99.48830893226315)" fill="url(#SvgjsLinearGradient3196)"><path d="M22.12 33.68 q0.6 0 1 0.42 t0.4 0.98 l0 2.88 q0 0.56 -0.4 0.98 t-1 0.42 l-17.48 0 q-0.56 0 -0.98 -0.42 t-0.42 -0.98 l0 -26.56 q0 -0.56 0.42 -0.98 t0.98 -0.42 l3 0 q0.56 0 0.98 0.42 t0.42 0.98 l0 22.28 l13.08 0 z M54.352000000000004 10 q0.4 0 0.74 0.2 t0.5 0.54 t0.14 0.74 t-0.22 0.72 l-10.88 15.68 l0 10.08 q0 0.56 -0.42 0.98 t-0.98 0.42 l-3 0 q-0.56 0 -0.98 -0.42 t-0.42 -0.98 l0 -10.08 l-10.92 -15.68 q-0.2 -0.32 -0.22 -0.72 t0.14 -0.74 t0.5 -0.54 t0.74 -0.2 l3.64 0 q0.68 0 1.16 0.6 l7.84 11.28 l7.84 -11.28 q0.48 -0.6 1.16 -0.6 l3.64 0 z M81.344 28.04 l5.96 9.16 q0.2 0.32 0.22 0.72 t-0.16 0.72 t-0.52 0.52 t-0.7 0.2 l-3.6 0 q-0.36 0 -0.68 -0.18 t-0.48 -0.46 l-6 -9.56 l-7.08 0 l0 8.8 q0 0.56 -0.42 0.98 t-0.98 0.42 l-3 0 q-0.56 0 -0.98 -0.42 t-0.42 -0.98 l0 -26.56 q0 -0.56 0.42 -0.98 t0.98 -0.42 l12.72 0 q4.6 0 7.46 2.62 t2.86 7.1 q0 2.88 -1.26 4.94 t-3.7 3.1 q-0.16 0.08 -0.52 0.24 z M68.304 15.64 l0 7.88 l7.8 0 q3.44 0 4.68 -1.96 q0.4 -0.72 0.4 -1.84 q0 -1.88 -1.24 -2.96 q-1.36 -1.12 -3.68 -1.12 l-7.96 0 z M100.056 10 q0.56 0 0.98 0.42 t0.42 0.98 l0 26.56 q0 0.56 -0.42 0.98 t-0.98 0.42 l-3 0 q-0.56 0 -0.98 -0.42 t-0.42 -0.98 l0 -26.56 q0 -0.56 0.42 -0.98 t0.98 -0.42 l3 0 z M132.008 10 q0.6 0 1 0.42 t0.4 0.98 l0 2.88 q0 0.56 -0.4 0.98 t-1 0.42 l-14.76 0 l0 6.44 l13 0 q0.6 0 1 0.42 t0.4 0.98 l0 2.92 q0 0.56 -0.4 0.98 t-1 0.42 l-13 0 l0 10.12 q0 0.56 -0.42 0.98 t-0.98 0.42 l-3 0 q-0.56 0 -0.98 -0.42 t-0.42 -0.98 l0 -26.56 q0 -0.56 0.42 -0.98 t0.98 -0.42 l19.16 0 z M164.56 10 q0.4 0 0.74 0.2 t0.5 0.54 t0.14 0.74 t-0.22 0.72 l-10.88 15.68 l0 10.08 q0 0.56 -0.42 0.98 t-0.98 0.42 l-3 0 q-0.56 0 -0.98 -0.42 t-0.42 -0.98 l0 -10.08 l-10.92 -15.68 q-0.2 -0.32 -0.22 -0.72 t0.14 -0.74 t0.5 -0.54 t0.74 -0.2 l3.64 0 q0.68 0 1.16 0.6 l7.84 11.28 l7.84 -11.28 q0.48 -0.6 1.16 -0.6 l3.64 0 z"></path></g>
			</g>
		</svg>
	